/* XPM */
static char * powder_48_xpm[] = {
"48 48 706 2",
"  	c None",
". 	c #818488",
"+ 	c #D3D9E0",
"@ 	c #687991",
"# 	c #343333",
"$ 	c #403333",
"% 	c #663333",
"& 	c #8B3635",
"* 	c #A04335",
"= 	c #A53B36",
"- 	c #A23C35",
"; 	c #A54235",
"> 	c #A75937",
", 	c #A86A37",
"' 	c #A87237",
") 	c #A97D39",
"! 	c #A9883D",
"~ 	c #A98E41",
"{ 	c #A98F43",
"] 	c #A98E44",
"^ 	c #A99044",
"/ 	c #A99041",
"( 	c #A9913F",
"_ 	c #A9903E",
": 	c #A9903C",
"< 	c #A99038",
"[ 	c #A98D37",
"} 	c #A87436",
"| 	c #A86635",
"1 	c #A85C35",
"2 	c #A85235",
"3 	c #A74C35",
"4 	c #A84935",
"5 	c #A74735",
"6 	c #A84636",
"7 	c #A64036",
"8 	c #A63C35",
"9 	c #A73C35",
"0 	c #A63E36",
"a 	c #A53D36",
"b 	c #605F5F",
"c 	c #290100",
"d 	c #770002",
"e 	c #B90103",
"f 	c #E40706",
"g 	c #FB1B07",
"h 	c #FE3F09",
"i 	c #FE6F0A",
"j 	c #FEAE0A",
"k 	c #FDEB0D",
"l 	c #FEFE15",
"m 	c #FDFD27",
"n 	c #FDFD3C",
"o 	c #FDFD4A",
"p 	c #FCFC46",
"q 	c #FDFC4E",
"r 	c #FCFD5D",
"s 	c #FCFC5A",
"t 	c #FBFC4D",
"u 	c #FCFB33",
"v 	c #FCFB31",
"w 	c #FBFB22",
"x 	c #FBFA0B",
"y 	c #FBFA07",
"z 	c #FADD08",
"A 	c #FAAF08",
"B 	c #FA9A08",
"C 	c #F97207",
"D 	c #F86807",
"E 	c #F96308",
"F 	c #F85E07",
"G 	c #F84907",
"H 	c #F73607",
"I 	c #F72E06",
"J 	c #F73507",
"K 	c #F73706",
"L 	c #F73407",
"M 	c #2A2A2A",
"N 	c #272728",
"O 	c #000000",
"P 	c #940504",
"Q 	c #DF0505",
"R 	c #FD0807",
"S 	c #FE0006",
"T 	c #FE0E06",
"U 	c #FE8809",
"V 	c #FEF00E",
"W 	c #FEFE18",
"X 	c #FDFD13",
"Y 	c #FDFD1C",
"Z 	c #FDFD2A",
"` 	c #FDFC2B",
" .	c #FDFD1B",
"..	c #FCFD1C",
"+.	c #FCFC26",
"@.	c #FCFB23",
"#.	c #FCFB1C",
"$.	c #FBFB0C",
"%.	c #FBFB0A",
"&.	c #FAFB06",
"*.	c #FAE206",
"=.	c #F9AA06",
"-.	c #F97E06",
";.	c #F96C06",
">.	c #F87307",
",.	c #F97A07",
"'.	c #F97D07",
").	c #F85807",
"!.	c #F73E06",
"~.	c #F73006",
"{.	c #F63B06",
"].	c #F64006",
"^.	c #F63F06",
"/.	c #2C2C2C",
"(.	c #F5F5F5",
"_.	c #F5F5F6",
":.	c #FB1808",
"<.	c #FF0607",
"[.	c #FF0006",
"}.	c #FF0806",
"|.	c #FEA908",
"1.	c #FEFE20",
"2.	c #FEFE39",
"3.	c #FDFD25",
"4.	c #FDFD08",
"5.	c #FDFD04",
"6.	c #FDFC05",
"7.	c #FDFD06",
"8.	c #FCFC05",
"9.	c #FCFC04",
"0.	c #FBFC04",
"a.	c #FBFB05",
"b.	c #FAFB05",
"c.	c #FBF906",
"d.	c #FAD306",
"e.	c #FA9206",
"f.	c #F95C06",
"g.	c #F94006",
"h.	c #F95407",
"i.	c #F85C08",
"j.	c #F86909",
"k.	c #F85B07",
"l.	c #F74307",
"m.	c #F72006",
"n.	c #F71906",
"o.	c #F72206",
"p.	c #F61C06",
"q.	c #F61206",
"r.	c #292929",
"s.	c #FF0205",
"t.	c #FF0005",
"u.	c #FE2106",
"v.	c #FED009",
"w.	c #FEFE31",
"x.	c #FEFD47",
"y.	c #FEFD1E",
"z.	c #FCFD08",
"A.	c #FDFC08",
"B.	c #FCFC09",
"C.	c #FBFC08",
"D.	c #FBFB08",
"E.	c #FBFB07",
"F.	c #FBF907",
"G.	c #FAEC06",
"H.	c #FAD107",
"I.	c #FA8F06",
"J.	c #FA5206",
"K.	c #FA2705",
"L.	c #F91B05",
"M.	c #F93006",
"N.	c #F84306",
"O.	c #F85908",
"P.	c #F87409",
"Q.	c #F75508",
"R.	c #F73406",
"S.	c #F62407",
"T.	c #F60E06",
"U.	c #F60B06",
"V.	c #F60506",
"W.	c #F50006",
"X.	c #282727",
"Y.	c #282828",
"Z.	c #262626",
"`.	c #FF0107",
" +	c #FE0907",
".+	c #FE6D05",
"++	c #FDF914",
"@+	c #FDFE42",
"#+	c #FDFD50",
"$+	c #FDFE23",
"%+	c #FDFD05",
"&+	c #FCFD07",
"*+	c #FCFC08",
"=+	c #FCFD09",
"-+	c #FCFB09",
";+	c #FCFC0A",
">+	c #FCFB07",
",+	c #FBFA06",
"'+	c #FAE806",
")+	c #FAC906",
"!+	c #F9AB06",
"~+	c #F96F06",
"{+	c #F93506",
"]+	c #F91306",
"^+	c #F81B06",
"/+	c #F93407",
"(+	c #F93F06",
"_+	c #F86607",
":+	c #F78B08",
"<+	c #F7840A",
"[+	c #F75D07",
"}+	c #F74506",
"|+	c #F72106",
"1+	c #F51106",
"2+	c #F50506",
"3+	c #F50206",
"4+	c #121212",
"5+	c #0E0E0E",
"6+	c #0A0A0A",
"7+	c #FE0807",
"8+	c #FF1F08",
"9+	c #FE3A07",
"0+	c #FE7C07",
"a+	c #FEE207",
"b+	c #FDFD39",
"c+	c #FDFD78",
"d+	c #FDFD7F",
"e+	c #FDFD49",
"f+	c #FCFD12",
"g+	c #FDFD07",
"h+	c #FCFD0B",
"i+	c #FCFC0C",
"j+	c #FCFC0B",
"k+	c #FCFC0E",
"l+	c #FAFB07",
"m+	c #FAED06",
"n+	c #FAD806",
"o+	c #FAC306",
"p+	c #FAA806",
"q+	c #FA7506",
"r+	c #F94106",
"s+	c #F92806",
"t+	c #F93606",
"u+	c #F84506",
"v+	c #F85806",
"w+	c #F79408",
"x+	c #F7DD0B",
"y+	c #F7E00A",
"z+	c #F7BF08",
"A+	c #F6A408",
"B+	c #F67B08",
"C+	c #F65907",
"D+	c #F63106",
"E+	c #F52206",
"F+	c #FE6608",
"G+	c #FEA909",
"H+	c #FED108",
"I+	c #FEF908",
"J+	c #FDFE2A",
"K+	c #FDFD95",
"L+	c #FDFED4",
"M+	c #FEFDD3",
"N+	c #FDFCA2",
"O+	c #FDFC59",
"P+	c #FCFC27",
"Q+	c #FCFC15",
"R+	c #FCFB0D",
"S+	c #FBFC11",
"T+	c #FBFB09",
"U+	c #FAF608",
"V+	c #FAD307",
"W+	c #FACF07",
"X+	c #F9CA06",
"Y+	c #F9C007",
"Z+	c #F99806",
"`+	c #F96E06",
" @	c #F85F06",
".@	c #F86606",
"+@	c #F87106",
"@@	c #F89606",
"#@	c #F8DB08",
"$@	c #F7F709",
"%@	c #F6F70E",
"&@	c #F6F70F",
"*@	c #F6F60A",
"=@	c #F5EE08",
"-@	c #F6DA09",
";@	c #F5A507",
">@	c #F56D06",
",@	c #F4F5F4",
"'@	c #F4F4F4",
")@	c #FEE607",
"!@	c #FEFF0E",
"~@	c #FEFE1F",
"{@	c #FEFD40",
"]@	c #FDFE9A",
"^@	c #FDFDF0",
"/@	c #FDFDFD",
"(@	c #FDFDF7",
"_@	c #FCFCDA",
":@	c #FCFC90",
"<@	c #FBFC4B",
"[@	c #FCFB27",
"}@	c #FBFB15",
"|@	c #FAEC07",
"1@	c #FAC006",
"2@	c #FAC907",
"3@	c #FADE07",
"4@	c #F9E407",
"5@	c #F9C107",
"6@	c #F9A606",
"7@	c #F8A506",
"8@	c #F8AC06",
"9@	c #F8C307",
"0@	c #F7E608",
"a@	c #F8F709",
"b@	c #F7F706",
"c@	c #F6F71A",
"d@	c #F6F730",
"e@	c #F6F61E",
"f@	c #F5F60D",
"g@	c #F6F606",
"h@	c #F5F506",
"i@	c #F4D908",
"j@	c #FEFE0F",
"k@	c #FEFE3D",
"l@	c #FEFE7F",
"m@	c #FEFEBE",
"n@	c #FDFDFC",
"o@	c #FCFDFD",
"p@	c #FCFCFC",
"q@	c #FCFCF7",
"r@	c #FBFCBD",
"s@	c #FBFB66",
"t@	c #FBFB2F",
"u@	c #FBFB10",
"v@	c #FADD06",
"w@	c #FAAC06",
"x@	c #FAC707",
"y@	c #F9EC07",
"z@	c #F9F708",
"A@	c #F8E607",
"B@	c #F8DF08",
"C@	c #F8E608",
"D@	c #F8ED07",
"E@	c #F8F707",
"F@	c #F7F707",
"G@	c #F7F705",
"H@	c #F7F641",
"I@	c #F6F680",
"J@	c #F5F689",
"K@	c #F5F562",
"L@	c #F5F527",
"M@	c #F4F505",
"N@	c #BDC6D1",
"O@	c #FEFF55",
"P@	c #FEFEAF",
"Q@	c #FDFEF2",
"R@	c #FDFEFD",
"S@	c #FEFDFD",
"T@	c #FCFCFD",
"U@	c #FBFBC6",
"V@	c #FBFB76",
"W@	c #FAFB41",
"X@	c #FBFA15",
"Y@	c #FACC04",
"Z@	c #F9D607",
"`@	c #F8F908",
" #	c #F8F808",
".#	c #F8F907",
"+#	c #F7F808",
"@#	c #F7F708",
"##	c #F6F71D",
"$#	c #F6F753",
"%#	c #F6F6A3",
"&#	c #F5F5E7",
"*#	c #F5F5F3",
"=#	c #F5F5E2",
"-#	c #F5F597",
";#	c #F4F53F",
">#	c #F4F410",
",#	c #FEFEC8",
"'#	c #FEFEFD",
")#	c #FEFEFE",
"!#	c #FDFCFD",
"~#	c #FDFCFC",
"{#	c #FBFCFC",
"]#	c #FCFBFC",
"^#	c #FCFBFB",
"/#	c #FBFBFB",
"(#	c #FBFBC5",
"_#	c #FAFA7F",
":#	c #FBFB3F",
"<#	c #FAD20B",
"[#	c #FABC06",
"}#	c #F9EF0A",
"|#	c #F9F90B",
"1#	c #F8F90A",
"2#	c #F8F809",
"3#	c #F8F80A",
"4#	c #F8F70E",
"5#	c #F7F819",
"6#	c #F7F731",
"7#	c #F7F657",
"8#	c #F6F791",
"9#	c #F6F6CC",
"0#	c #F6F6F3",
"a#	c #F6F5F5",
"b#	c #F5F5EE",
"c#	c #F4F5A8",
"d#	c #F4F44A",
"e#	c #FDFEFE",
"f#	c #FBFBFC",
"g#	c #FBFAFA",
"h#	c #FBFAE5",
"i#	c #FAFAA7",
"j#	c #F9FA5E",
"k#	c #F9F218",
"l#	c #F9F00A",
"m#	c #F9F917",
"n#	c #F9F821",
"o#	c #F8F923",
"p#	c #F8F827",
"q#	c #F7F831",
"r#	c #F7F745",
"s#	c #F8F76E",
"t#	c #F7F6AB",
"u#	c #F7F7DF",
"v#	c #F6F6F6",
"w#	c #F5F6F6",
"x#	c #F6F5F6",
"y#	c #F5F5F4",
"z#	c #F4F4DB",
"A#	c #F3F47D",
"B#	c #F4F4F3",
"C#	c #F3F3F3",
"D#	c #FDFDFE",
"E#	c #FCFCFB",
"F#	c #FBFCFB",
"G#	c #FAFAFA",
"H#	c #FAFAE8",
"I#	c #FAFAB3",
"J#	c #F9F96A",
"K#	c #F9F92B",
"L#	c #F9F920",
"M#	c #F8F93E",
"N#	c #F8F952",
"O#	c #F8F852",
"P#	c #F8F85E",
"Q#	c #F8F775",
"R#	c #F7F79F",
"S#	c #F7F7E0",
"T#	c #F6F7F6",
"U#	c #F7F6F6",
"V#	c #F5F4F4",
"W#	c #F4F4DC",
"X#	c #F4F48D",
"Y#	c #F2F3F3",
"Z#	c #FBFBFA",
"`#	c #FBFAFB",
" $	c #FAFBFA",
".$	c #FAFAEF",
"+$	c #FAF9C4",
"@$	c #F9F989",
"#$	c #F9F95C",
"$$	c #F9F963",
"%$	c #F8F983",
"&$	c #F8F895",
"*$	c #F8F89A",
"=$	c #F8F8A5",
"-$	c #F7F8C1",
";$	c #F7F7E7",
">$	c #F7F7F7",
",$	c #F4F4CE",
"'$	c #F3F398",
")$	c #F9FAFA",
"!$	c #F9F9EF",
"~$	c #F9F9CD",
"{$	c #F9F9AA",
"]$	c #F8F8BB",
"^$	c #F8F8DE",
"/$	c #F8F8E5",
"($	c #F8F8EB",
"_$	c #F7F8F2",
":$	c #F6F6F7",
"<$	c #F4F5F5",
"[$	c #F3F4F0",
"}$	c #F4F3D2",
"|$	c #F3F3B0",
"1$	c #FAF9F9",
"2$	c #F9F9F9",
"3$	c #F8F9F1",
"4$	c #F8F8F7",
"5$	c #F8F8F8",
"6$	c #F8F7F8",
"7$	c #F8F7F7",
"8$	c #F7F6F7",
"9$	c #F5F6F5",
"0$	c #F3F4F4",
"a$	c #F4F3E3",
"b$	c #F3F3C0",
"c$	c #FDFDF8",
"d$	c #FAFAFB",
"e$	c #F8F8F9",
"f$	c #F9F8F8",
"g$	c #F4F4F5",
"h$	c #F3F3F4",
"i$	c #F3F3EF",
"j$	c #F3F3C6",
"k$	c #F2F3F2",
"l$	c #FCFDDF",
"m$	c #F9F9FA",
"n$	c #FAF9FA",
"o$	c #F8F9F9",
"p$	c #F7F7F8",
"q$	c #F7F7F6",
"r$	c #F4F3F3",
"s$	c #F3F3ED",
"t$	c #F3F3C4",
"u$	c #F2F2F2",
"v$	c #FCFDB7",
"w$	c #FDFCEE",
"x$	c #F9FAF9",
"y$	c #F7F8F8",
"z$	c #F6F6F5",
"A$	c #F2F3DF",
"B$	c #F2F2B2",
"C$	c #FDEB82",
"D$	c #FCFCC1",
"E$	c #FCFCF3",
"F$	c #FAFBFB",
"G$	c #F8F9F8",
"H$	c #F7F8F7",
"I$	c #F3F2E4",
"J$	c #F2F3BE",
"K$	c #F2F28D",
"L$	c #FCD04B",
"M$	c #FCFA81",
"N$	c #FCFCB9",
"O$	c #FBFBEA",
"P$	c #F9F8F9",
"Q$	c #F3F4F3",
"R$	c #F3F2E3",
"S$	c #F3F3B7",
"T$	c #F2F288",
"U$	c #F3EC56",
"V$	c #FCB91D",
"W$	c #FCEB48",
"X$	c #FCFB79",
"Y$	c #FBFBA5",
"Z$	c #FBFBC7",
"`$	c #FBFAE2",
" %	c #FAFAF8",
".%	c #F2F3C1",
"+%	c #F3F385",
"@%	c #F2F24C",
"#%	c #F2D61D",
"$%	c #F2F1F2",
"%%	c #FCB906",
"&%	c #FCE21D",
"*%	c #FCFA40",
"=%	c #FBFB5C",
"-%	c #FBFB75",
";%	c #FAFA88",
">%	c #FAFAAA",
",%	c #FAFAC8",
"'%	c #F9FADB",
")%	c #F9F9E3",
"!%	c #F7F7F4",
"~%	c #F7F7E9",
"{%	c #F7F6E7",
"]%	c #F6F6E5",
"^%	c #F6F5E3",
"/%	c #F6F5E6",
"(%	c #F6F6E7",
"_%	c #F5F5E5",
":%	c #F4F4E1",
"<%	c #F4F4D9",
"[%	c #F4F4D6",
"}%	c #F4F4E8",
"|%	c #F4F4E9",
"1%	c #F3F3E6",
"2%	c #F3F2D3",
"3%	c #F3F395",
"4%	c #F2F34E",
"5%	c #F2EF16",
"6%	c #F2BF04",
"7%	c #F1F1F1",
"8%	c #FC9505",
"9%	c #FBBC06",
"0%	c #FBD40C",
"a%	c #FADA16",
"b%	c #FADC22",
"c%	c #FAE82B",
"d%	c #FAF33C",
"e%	c #FAFA4D",
"f%	c #FAF958",
"g%	c #F9F960",
"h%	c #F9F978",
"i%	c #F8F9A0",
"j%	c #F9F8BE",
"k%	c #F8F8CB",
"l%	c #F8F7C5",
"m%	c #F8F7A7",
"n%	c #F7F67B",
"o%	c #F7F75E",
"p%	c #F6F756",
"q%	c #F6EF4F",
"r%	c #F6EF4E",
"s%	c #F5ED52",
"t%	c #F5E654",
"u%	c #F5E650",
"v%	c #F5EA4F",
"w%	c #F4F24D",
"x%	c #F4F454",
"y%	c #F4F46E",
"z%	c #F4F489",
"A%	c #F3F39D",
"B%	c #F3F3A0",
"C%	c #F3F384",
"D%	c #F2F24B",
"E%	c #F3F219",
"F%	c #F2ED06",
"G%	c #F2B206",
"H%	c #FB3205",
"I%	c #FB5D05",
"J%	c #FB7605",
"K%	c #FA8203",
"L%	c #FB8B03",
"M%	c #FA9903",
"N%	c #FAA804",
"O%	c #FABB06",
"P%	c #F9BE06",
"Q%	c #F9C407",
"R%	c #F8DB0E",
"S%	c #F8F11A",
"T%	c #F8F82E",
"U%	c #F8F837",
"V%	c #F7F732",
"W%	c #F7F61D",
"X%	c #F6D70B",
"Y%	c #F7AB06",
"Z%	c #F68603",
"`%	c #F66401",
" &	c #F56502",
".&	c #F55B02",
"+&	c #F54B01",
"@&	c #F54B02",
"#&	c #F55801",
"$&	c #F47402",
"%&	c #F4A105",
"&&	c #F3DE0E",
"*&	c #F3F31F",
"=&	c #F3F32F",
"-&	c #F2F233",
";&	c #F2F21F",
">&	c #F2F20A",
",&	c #F2E904",
"'&	c #F1C607",
")&	c #F2A007",
"!&	c #FB0005",
"~&	c #FB0405",
"{&	c #FB0E05",
"]&	c #FA1706",
"^&	c #FA1C06",
"/&	c #FA2305",
"(&	c #FA3105",
"_&	c #F93505",
":&	c #F93704",
"<&	c #F83B04",
"[&	c #F85604",
"}&	c #F87B03",
"|&	c #F79F02",
"1&	c #F7B804",
"2&	c #F7BB03",
"3&	c #F79103",
"4&	c #F64D04",
"5&	c #F61705",
"6&	c #F60D06",
"7&	c #F50005",
"8&	c #EF0005",
"9&	c #E60004",
"0&	c #E20004",
"a&	c #F40005",
"b&	c #F30105",
"c&	c #F31305",
"d&	c #F35004",
"e&	c #F3A603",
"f&	c #F3CC04",
"g&	c #F3D003",
"h&	c #F3C804",
"i&	c #F2A905",
"j&	c #F18106",
"k&	c #F25906",
"l&	c #F13F07",
"m&	c #F6F7F7",
"n&	c #F1F2F2",
"o&	c #F0F1F1",
"p&	c #F0F1F0",
"q&	c #F5F4F5",
"r&	c #F3F3F2",
"s&	c #F2F2F3",
"t&	c #F1F2F1",
"u&	c #F1F1F0",
"v&	c #F1F0F0",
"w&	c #808387",
"                                                                                                ",
"                                                                                                ",
"                                                                                                ",
"                                                                                                ",
"                                                                                                ",
"  . . . . . . . . . . . . . . . . . . . . . . . . . . . . . . . . . . . . . . . . . .           ",
". + + + + + + + + + + + + + + + + + + + + + + + + + + + + + + + @ @ + + @ @ + + @ @ + .         ",
". + + + + + + + + + + + + + + + + + + + + + + + + + + + + + + + + + + + + + + + + + + .         ",
". + # $ % & * = - ; > , ' ) ! ~ { ] ^ / ( _ : < [ } | 1 2 3 4 5 6 7 8 9 0 a b b b b + .         ",
". + c d e f g h i j k l m n o p q r s t u v w x y z A B C D E F G H I J K L M M N O + .         ",
". + P Q R S T U V l W X Y Z `  ...+.@.#.$.%.y &.*.=.-.;.>.,.'.>.).!.~.{.].^./.(._.O + .         ",
". + :.<.[.S }.|.1.2.3.4.5.6.7.7.8.9.0.a.a.b.c.d.e.f.g.g.h.i.j.k.l.m.n.o.p.q.r.(.(.O + .         ",
". + s.t.S S u.v.w.x.y.7.4.z.4.A.B.C.D.E.F.G.H.I.J.K.L.M.N.O.P.Q.R.S.T.U.V.W.X.Y.Z.O + .         ",
". + S [.`. +.+++@+#+$+%+&+*+=+-+;+$.>+,+'+)+!+~+{+]+^+/+(+_+:+<+[+}+|+1+2+3+4+5+6+O + .         ",
". + 7+8+9+0+a+b+c+d+e+f+g+h+i+j+k+%.l+m+n+o+p+q+r+s+t+u+v+w+x+y+z+A+B+C+D+E+O O O O + .         ",
". + F+G+H+I+J+K+L+M+N+O+P+Q+R+k+S+T+U+V+W+X+Y+Z+`+ @.@+@@@#@$@%@&@*@=@-@;@>@O ,@'@O + .         ",
". + )@!@~@{@]@^@/@/@(@_@:@<@[@}@T+D.|@1@2@3@4@5@6@7@8@9@0@a@b@c@d@e@f@g@h@i@O '@'@O + .         ",
". + j@k@l@m@(@/@/@n@o@p@q@r@s@t@u@&.v@w@x@y@z@A@B@C@D@E@F@G@%@H@I@J@K@L@h@M@O O O O + .         ",
". N@O@P@Q@R@S@/@/@n@T@p@p@p@U@V@W@X@Y@6@Z@z@`@ #.#+#+#@#$@##$#%#&#*#=#-#;#>#O O O O N@.         ",
". N@,#'#)#S@/@!#T@~#p@{#]#^#/#(#_#:#<#[#}#|#1#2#3#4#5#6#7#8#9#0#a#(.(.b#c#d#O O O O N@.         ",
". N@e#e#S@/@o@o@T@p@p@p@f#/#g#h#i#j#k#l#m#n#o#p#q#r#s#t#u#v#w#x#x#(.y#,@z#A#O B#C#O N@.         ",
". N@)#D#/@/@n@o@~#p@E#F#/#/#G#H#I#J#K#L#M#N#O#P#Q#R#S#T#U#v#v#(.(.y#V#'@W#X#O C#Y#O N@.         ",
". N@S@R@/@!#o@o@p@p@{#/#Z#`# $.$+$@$#$$$%$&$*$=$-$;$>$U#v#a#_.(.,@(.,@B#,$'$O O O O N@.         ",
". N@S@/@n@o@!#~#{#{#^#/#/#G#G#)$!$~${$]$^$/$($_$>$>$U#:$v#w#(.(.<$'@'@[$}$|$O O O O N@.         ",
". N@/@/@!#~#!#p@f#/#/#g# $`#G#1$2$2$3$4$5$6$7$6$8$8$T#v#9$_.(.(.y#'@0$0$a$b$O O O O N@.         ",
". N@c$o@n@p@p@^#]#f#Z#g#d$G#G#1$2$e$e$f$4$6$>$>$>$v#v#a#x#(.g$,@'@'@h$B#i$j$O C#k$O N@.         ",
". N@l$T@p@p@{#{#/#`# $ $G#m$n$G#2$o$5$5$6$p$>$q$U#v#x#9$9$<$(.'@'@'@r$C#s$t$O u$u$O N@.         ",
". N@v$w$p@p@f#/#/#d$d$G#G#G#x$2$2$e$5$y$y$>$q$:$v#x#z$x#y#<$g$'@B#h$h$C#A$B$O O O O N@.         ",
". N@C$D$E$E#E#f#/#F$G#G#G#x$2$2$e$G$5$H$>$>$U#U#w#9$x#(.(.g$'@'@h$0$C#I$J$K$O O O O N@.         ",
". N@L$M$N$O$/#/#Z#d$G#)$1$2$P$P$f$5$p$7$>$q$T#v#v#x#(.(.V#'@'@h$B#Q$R$S$T$U$O O O O N@.         ",
". N@V$W$X$Y$Z$`$ %G#n$2$2$P$e$5$5$6$7$>$U#v#U#v#9$(.(.,@V#'@0$r$C#i$.%+%@%#%O u$$%O N@.         ",
". N@%%&%*%=%-%;%>%,%'%)%!$G$5$5$5$7$!%~%{%]%^%/%(%_%:%<%[%W#}%|%1%2%3%4%5%6%O 7%7%O N@.         ",
". N@8%9%0%a%b%c%d%e%f%g%h%i%j%k%l%m%n%o%p%q%r%s%t%u%v%w%x%y%z%A%B%C%D%E%F%G%O O O O N@.         ",
". N@H%I%J%K%L%M%N%O%P%Q%R%S%T%U%V%W%X%Y%Z%`% &.&+&@&#&$&%&&&*&=&-&;&>&,&'&)&O O O O N@.         ",
". N@!&~&{&]&^&/&(&_&:&<&[&}&|&1&2&3&4&5&6&7&7&8&9&0&a&b&c&d&e&f&g&h&i&j&k&l&O O O O N@.         ",
". N@O O O O O O O O O O O O O O O O O O O O O O O O O O O O O O O O O O O O O O O O N@.         ",
". N@O F$G#O n$2$O 5$e$5$5$>$O m&m&U#v#z$(.(.(.(.'@'@'@O C#k$O k$u$n&$%O 7%7%O o&p&O N@.         ",
". N@O `#G#O m$2$O G$5$5$H$>$O m&v#v#v#(.(.(.q&V#'@B#B#O C#r&O s&u$t&$%O 7%u&O o&v&O N@.         ",
". N@O O O O O O O O O O O O O O O O O O O O O O O O O O O O O O O O O O O O O O O O N@.         ",
". N@N@N@N@N@N@N@N@N@N@N@N@N@N@N@N@N@N@N@N@N@N@N@N@N@N@N@N@N@N@N@N@N@N@N@N@N@N@N@N@N@N@.         ",
"  . . . . . . . . . . . . . . w&w&w&w&w&w&w&w&w&w&w&w&w&w&w&w&w&w&w&w&. . . . . . . .           ",
"                                                                                                ",
"                                                                                                ",
"                                                                                                ",
"                                                                                                ",
"                                                                                                ",
"                                                                                                ",
"                                                                                                "};
