/* XPM */
static char * the_powder_toy_xpm[] = {
"32 32 314 2",
"  	c None",
". 	c #818488",
"+ 	c #84868B",
"@ 	c #87898B",
"# 	c #D8DEE6",
"$ 	c #D1D7DF",
"% 	c #D1D7DE",
"& 	c #687991",
"* 	c #888A8E",
"= 	c #494D4E",
"- 	c #525556",
"; 	c #745556",
"> 	c #D35753",
", 	c #F26050",
"' 	c #F6754E",
") 	c #F9A44E",
"! 	c #FABF51",
"~ 	c #FACE5A",
"{ 	c #FADC63",
"] 	c #FADF68",
"^ 	c #FAE06A",
"/ 	c #FAE164",
"( 	c #FAE15A",
"_ 	c #FAE152",
": 	c #FAE147",
"< 	c #F9CA42",
"[ 	c #F89D40",
"} 	c #F88D43",
"| 	c #F88246",
"1 	c #F87B44",
"2 	c #F87244",
"3 	c #F86244",
"4 	c #F85942",
"5 	c #F86145",
"6 	c #2C2C2C",
"7 	c #292929",
"8 	c #514645",
"9 	c #9A514D",
"0 	c #E84C4E",
"a 	c #FF4E4A",
"b 	c #FFA348",
"c 	c #FFEB4C",
"d 	c #FFFF4C",
"e 	c #FFFF51",
"f 	c #FFFF62",
"g 	c #FFFF61",
"h 	c #FFFF60",
"i 	c #FFFF67",
"j 	c #FFFF5D",
"k 	c #FFFF4A",
"l 	c #FFFF41",
"m 	c #FFFE36",
"n 	c #FFE035",
"o 	c #FFA834",
"p 	c #FF9B37",
"q 	c #FFA139",
"r 	c #FF9E37",
"s 	c #FF8437",
"t 	c #FF6635",
"u 	c #FF6433",
"v 	c #FF6D37",
"w 	c #FFFFFF",
"x 	c #2B2B2B",
"y 	c #84868A",
"z 	c #CE4B42",
"A 	c #FF4B49",
"B 	c #FF4347",
"C 	c #FF4544",
"D 	c #FFD94A",
"E 	c #FFFF3D",
"F 	c #FFFF3C",
"G 	c #FFFF3A",
"H 	c #FFFF36",
"I 	c #FFFF34",
"J 	c #FFFF33",
"K 	c #FFFF32",
"L 	c #FFF931",
"M 	c #FFCC33",
"N 	c #FF8032",
"O 	c #FF5A30",
"P 	c #FF6430",
"Q 	c #FF7B30",
"R 	c #FF7E2F",
"S 	c #FF5E2E",
"T 	c #FF3C2D",
"U 	c #FF3E2D",
"V 	c #FF3A2D",
"W 	c #262626",
"X 	c #FF3E41",
"Y 	c #FF4448",
"Z 	c #FF4146",
"` 	c #FF6F41",
" .	c #FFF04D",
"..	c #FFFF71",
"+.	c #FFFF37",
"@.	c #FFFF3B",
"#.	c #FFFF39",
"$.	c #FFF233",
"%.	c #FFCF32",
"&.	c #FF8430",
"*.	c #FF412F",
"=.	c #FF3B2E",
"-.	c #FF552E",
";.	c #FF7B2F",
">.	c #FF932F",
",.	c #FF6C2D",
"'.	c #FF4027",
").	c #FF2122",
"!.	c #FF151B",
"~.	c #0F0F0F",
"{.	c #090909",
"].	c #040404",
"^.	c #FF3D40",
"/.	c #FF6247",
"(.	c #FF8440",
"_.	c #FFD43D",
":.	c #FFFF7A",
"<.	c #FFFFA4",
"[.	c #FFFF6D",
"}.	c #FFFF35",
"|.	c #FFF731",
"1.	c #FFDB30",
"2.	c #FFBD2E",
"3.	c #FF812D",
"4.	c #FF4C2C",
"5.	c #FF4D29",
"6.	c #FF6323",
"7.	c #FFAA1F",
"8.	c #FFE119",
"9.	c #FFCC0D",
"0.	c #FFA207",
"a.	c #FF7008",
"b.	c #FF3907",
"c.	c #000000",
"d.	c #FF993D",
"e.	c #FFDC40",
"f.	c #FFF744",
"g.	c #FFFFDC",
"h.	c #FFFFF2",
"i.	c #FFFFD4",
"j.	c #FFFF8E",
"k.	c #FFFF50",
"l.	c #FFFE31",
"m.	c #FFDE2F",
"n.	c #FFD82F",
"o.	c #FFDC28",
"p.	c #FFAF1E",
"q.	c #FF8913",
"r.	c #FF8E0A",
"s.	c #FFB408",
"t.	c #FFF206",
"u.	c #FFFF0A",
"v.	c #FFFF14",
"w.	c #FFFF06",
"x.	c #FFF500",
"y.	c #FFD005",
"z.	c #FFF837",
"A.	c #FFFF65",
"B.	c #FFFFA7",
"C.	c #FFFFE8",
"D.	c #FFFFF4",
"E.	c #FFFFBC",
"F.	c #FFF527",
"G.	c #FFC01D",
"H.	c #FFD712",
"I.	c #FFFA0A",
"J.	c #FFE907",
"K.	c #FFE307",
"L.	c #FFEF06",
"M.	c #FFFD01",
"N.	c #FFFF00",
"O.	c #FFFF20",
"P.	c #FFFF7B",
"Q.	c #FFFF81",
"R.	c #FFFF03",
"S.	c #FFFF78",
"T.	c #FFFFD7",
"U.	c #FFFFFB",
"V.	c #FFFFFE",
"W.	c #FFFFC7",
"X.	c #FFE916",
"Y.	c #FFB902",
"Z.	c #FFEB06",
"`.	c #FFFF07",
" +	c #FFFF05",
".+	c #FFFF04",
"++	c #FFFF16",
"@+	c #FFFF48",
"#+	c #FFFFA8",
"$+	c #FFFFF1",
"%+	c #FFFFF8",
"&+	c #FFFFCD",
"*+	c #FFFF5A",
"=+	c #FFFFDE",
"-+	c #FFFFFA",
";+	c #FFFFAB",
">+	c #FFF738",
",+	c #FFED06",
"'+	c #FFFD16",
")+	c #FFFF1E",
"!+	c #FFFF22",
"~+	c #FFFF6A",
"{+	c #FFFFB6",
"]+	c #FFFFE9",
"^+	c #FFFFFD",
"/+	c #FFFFC3",
"(+	c #FFFFC0",
"_+	c #FFFF55",
":+	c #FFFF30",
"<+	c #FFFF57",
"[+	c #FFFF68",
"}+	c #FFFF77",
"|+	c #FFFFAD",
"1+	c #FFFFEF",
"2+	c #FFFFD1",
"3+	c #FFFFE7",
"4+	c #FFFFA9",
"5+	c #FFFFA3",
"6+	c #FFFFCA",
"7+	c #FFFFD8",
"8+	c #FFFFE5",
"9+	c #FFFFD0",
"0+	c #FFFFFC",
"a+	c #FFFFDA",
"b+	c #FFF69A",
"c+	c #FDFDFD",
"d+	c #FCFCFC",
"e+	c #FEFEFE",
"f+	c #FFFFE1",
"g+	c #FFC849",
"h+	c #FFFA9F",
"i+	c #FFFFEA",
"j+	c #FBFBFB",
"k+	c #FFFFE3",
"l+	c #FFFFA1",
"m+	c #FFAE0C",
"n+	c #FFF045",
"o+	c #FFFF92",
"p+	c #FCFCFF",
"q+	c #FFFF9D",
"r+	c #FFF843",
"s+	c #FF9501",
"t+	c #FFDC0D",
"u+	c #FFF72B",
"v+	c #FFFA4B",
"w+	c #FFFF69",
"x+	c #FFFF8F",
"y+	c #FFFFA5",
"z+	c #FFFFB7",
"A+	c #FEFEF6",
"B+	c #FEFEF5",
"C+	c #FFFFD5",
"D+	c #FFFFB3",
"E+	c #FFFFA2",
"F+	c #FFFFD3",
"G+	c #FFFF44",
"H+	c #FFF108",
"I+	c #FF2B06",
"J+	c #FF6604",
"K+	c #FF8902",
"L+	c #FF9604",
"M+	c #FFA908",
"N+	c #FFBF0E",
"O+	c #FFC713",
"P+	c #FFD71C",
"Q+	c #FFF736",
"R+	c #FFFF53",
"S+	c #FFF12E",
"T+	c #FFBC17",
"U+	c #FF8E10",
"V+	c #FF7C0E",
"W+	c #FF7310",
"X+	c #FF6710",
"Y+	c #FF740F",
"Z+	c #FF9C0F",
"`+	c #FFE420",
" @	c #FFFF3E",
".@	c #FFFF29",
"+@	c #FFF809",
"@@	c #FFCA04",
"#@	c #DF1418",
"$@	c #E61818",
"%@	c #E81C18",
"&@	c #E52216",
"*@	c #E82A16",
"=@	c #EC3215",
"-@	c #ED3314",
";@	c #F24014",
">@	c #F56514",
",@	c #F78714",
"'@	c #F99214",
")@	c #FA6414",
"!@	c #F22814",
"~@	c #E21A14",
"{@	c #D81814",
"]@	c #C61714",
"^@	c #BA1514",
"/@	c #D01714",
"(@	c #EA1C14",
"_@	c #EF4914",
":@	c #F49314",
"<@	c #F6AA14",
"[@	c #F79915",
"}@	c #F77118",
"|@	c #F1491A",
"1@	c #FEFFFF",
"2@	c #7E8185",
"3@	c #83868A",
"4@	c #86898C",
"5@	c #898C8F",
"6@	c #878A8F",
"7@	c #85878B",
"8@	c #828488",
"9@	c #737579",
"                                                                ",
"                                                                ",
"                                                                ",
"  . . . . . . . . . . . . . . . . . . . . . . . . . . . . +     ",
"@ # $ % % % % % % % % % % % % % % % % % % % % & % & % & % .     ",
"* = - ; > , ' ) ! ~ { ] ^ / ( _ : < [ } | 1 2 3 4 5 6 6 7 .     ",
"+ 8 9 0 a b c d e f g h i j k l m n o p q r s t u v 6 w x .     ",
"y z A B C D f e E F G H I J K L M N O P Q R S T U V 7 7 W .     ",
"y X Y Z `  ...d +.@.#.#.+.I $.%.&.*.=.-.;.>.,.'.).!.~.{.]..     ",
"y ^./.(._.:.<.[.H }.#.@.H |.1.2.3.4.5.6.7.8.9.0.a.b.c.c.c..     ",
"y d.e.f.:.g.h.i.j.k.G H l.m.n.o.p.q.r.s.t.u.v.w.x.y.c.w c..     ",
". z.A.B.C.w w w D.E.A.H F.G.H.I.J.K.L.M.N.O.P.Q.H R.c.c.c..     ",
". S.T.U.w w w w w V.W.g X.Y.Z.`. +.+`.++@+#+$+%+&+*+c.c.c..     ",
". =+w w w w w w w w -+;+>+,+'+)+!+}.~+{+]+^+w w w /+c.c.c..     ",
". w w w w w w w w w ^+(+_+:+<+[+}+|+1+w w w w w w 2+c.w c..     ",
". w w w w w w w w w w 3+4+5+6+7+8+U.w w w w w w ^+9+c.c.c..     ",
". ^+w w w w w w w w w w 0+^+w w w w w w w w w w w C.c.c.c..     ",
". a+w w w w w w w w w w w w w w w w w w w w w w w D.c.c.c..     ",
". b+]+w w w w w w w c+d+e+w w w w w w w w w w w w f+c.w c..     ",
". g+h+i+w w w w w e+w w j+w w w w w w w w w w w k+l+c.c.c..     ",
". m+n+o+6+i+w w w w w w p+w w w w w w w w w w $+q+r+c.c.c..     ",
". s+t+u+v+w+x+y+z+g.A+B+C+D+#+<.#+4+5+E+{+F+a+B.G+H+c.c.c..     ",
". I+J+K+L+M+N+O+P+Q+R+e S+T+U+V+W+X+Y+Z+`+ @@+.@+@@@c.w c..     ",
". #@$@%@&@*@=@-@;@>@,@'@)@!@~@{@]@^@/@(@_@:@<@[@}@|@c.c.c..     ",
". c.c.c.c.c.c.c.c.c.c.c.c.c.c.c.c.c.c.c.c.c.c.c.c.c.c.c.c..     ",
". c.1@c.1@c.1@1@1@1@1@c.1@1@1@1@1@c.1@c.1@1@1@1@c.1@c.1@c..     ",
". c.c.c.c.c.c.c.c.c.c.c.c.c.c.c.c.c.c.c.c.c.c.c.c.c.c.c.c..     ",
"+ 2@. . . . . . . . . . . . . . 3@4@5@6@7@8@. . . . . . . 9@    ",
"                                                                ",
"                                                                ",
"                                                                ",
"                                                                "};
